<svg xmlns="http://www.w3.org/2000/svg" xmlns:xlink="http://www.w3.org/1999/xlink" width="481.565" height="362" viewBox="0 0 481.565 362">
  <defs>
    <filter id="Polygon_28" x="420" y="123.285" width="61.565" height="61.247" filterUnits="userSpaceOnUse">
      <feOffset dy="3" input="SourceAlpha"/>
      <feGaussianBlur stdDeviation="3" result="blur"/>
      <feFlood flood-opacity="0.161"/>
      <feComposite operator="in" in2="blur"/>
      <feComposite in="SourceGraphic"/>
    </filter>
  </defs>
  <g id="Empty-cart" transform="translate(-437.312 -10150)">
    <path id="shopping-bag" d="M182.4,66.329a66.329,66.329,0,0,0-132.657,0H0V223.859a41.455,41.455,0,0,0,41.455,41.455h149.24a41.455,41.455,0,0,0,41.455-41.455V66.329ZM116.075,16.582a49.8,49.8,0,0,1,49.747,49.747H66.329A49.8,49.8,0,0,1,116.075,16.582Zm99.493,207.277a24.9,24.9,0,0,1-24.873,24.873H41.455a24.9,24.9,0,0,1-24.873-24.873V82.911H49.747v24.873a8.291,8.291,0,0,0,16.582,0V82.911h99.493v24.873a8.291,8.291,0,1,0,16.582,0V82.911h33.164Z" transform="translate(540.925 10168.343)" fill="rgba(110,110,110,0.7)"/>
    <g id="Ellipse_384" data-name="Ellipse 384" transform="translate(634 10308)" fill="none" stroke="#f94e60" stroke-width="2" stroke-dasharray="7">
      <circle cx="25" cy="25" r="25" stroke="none"/>
      <circle cx="25" cy="25" r="24" fill="none"/>
    </g>
    <text id="_0" data-name="0" transform="translate(672 10349)" fill="#f94e60" font-size="58" font-family="IRANYekanWebFn"><tspan x="-28.552" y="0">0</tspan></text>
    <path id="frown-open" d="M51,8a51,51,0,1,0,51,51A50.991,50.991,0,0,0,51,8Zm0,95.419A44.419,44.419,0,1,1,95.419,59,44.47,44.47,0,0,1,51,103.419ZM34.548,55.71a6.581,6.581,0,1,0-6.581-6.581A6.574,6.574,0,0,0,34.548,55.71Zm32.9-13.161a6.581,6.581,0,1,0,6.581,6.581A6.574,6.574,0,0,0,67.452,42.548ZM51,65.581c-8.164,0-21.1,4.874-22.929,15.321a6.573,6.573,0,0,0,8.411,7.424c6.025-1.851,11.6-3,14.519-3s8.493,1.152,14.519,3a6.579,6.579,0,0,0,6.293-1.357A6.655,6.655,0,0,0,73.929,80.9C72.1,70.454,59.164,65.581,51,65.581Zm0,13.161c-3.64,0-9.645,1.193-16.452,3.29,1.069-6.108,10.3-9.871,16.452-9.871s15.382,3.763,16.452,9.871C60.645,79.935,54.64,78.742,51,78.742Z" transform="translate(800 10142)" fill="#f94e60"/>
    <g transform="matrix(1, 0, 0, 1, 437.31, 10150)" filter="url(#Polygon_28)">
      <path id="Polygon_28-2" data-name="Polygon 28" d="M15.5,0,31,32H0Z" transform="matrix(0.53, -0.85, 0.85, 0.53, 429, 155.57)" fill="#f94e60"/>
    </g>
    <g id="Polygon_31" data-name="Polygon 31" transform="matrix(0.53, -0.848, 0.848, 0.53, 437.312, 10290.574)" fill="none">
      <path d="M15.5,0,31,32H0Z" stroke="none"/>
      <path d="M 15.50000095367432 2.293952941894531 L 1.595510482788086 31 L 29.40449142456055 31 L 15.50000095367432 2.293952941894531 M 15.50000095367432 0 L 31 32 L 1.9073486328125e-06 32 L 15.50000095367432 0 Z" stroke="none" fill="#f94e60"/>
    </g>
    <path id="Polygon_29" data-name="Polygon 29" d="M15.5,0,31,32H0Z" transform="matrix(0.799, 0.602, -0.602, 0.799, 819.345, 10320.802)" fill="rgba(110,110,110,0.3)"/>
    <path id="Polygon_30" data-name="Polygon 30" d="M15.5,0,31,32H0Z" transform="matrix(0.891, -0.454, 0.454, 0.891, 481.021, 10321.689)" fill="rgba(110,110,110,0.3)"/>
    <path id="Polygon_32" data-name="Polygon 32" d="M15.5,0,31,32H0Z" transform="matrix(0.891, -0.454, 0.454, 0.891, 549.021, 10182.689)" fill="rgba(110,110,110,0.3)"/>
    <path id="times" d="M10.049,104.29l5.314-5.314,1.1-1.1a.415.415,0,0,0,0-.586l-1.173-1.173a.415.415,0,0,0-.586,0l-6.41,6.41L1.88,96.121a.415.415,0,0,0-.586,0L.121,97.294a.415.415,0,0,0,0,.586l6.411,6.411L.121,110.7a.415.415,0,0,0,0,.586l1.173,1.173a.415.415,0,0,0,.586,0l6.411-6.41,5.314,5.314,1.1,1.1a.415.415,0,0,0,.586,0l1.173-1.173a.415.415,0,0,0,0-.586Z" transform="matrix(0.951, -0.309, 0.309, 0.951, 468.883, 10174.371)" fill="#f94e60"/>
    <path id="times-2" data-name="times" d="M10.049,104.29l5.314-5.314,1.1-1.1a.415.415,0,0,0,0-.586l-1.173-1.173a.415.415,0,0,0-.586,0l-6.41,6.41L1.88,96.121a.415.415,0,0,0-.586,0L.121,97.294a.415.415,0,0,0,0,.586l6.411,6.411L.121,110.7a.415.415,0,0,0,0,.586l1.173,1.173a.415.415,0,0,0,.586,0l6.411-6.41,5.314,5.314,1.1,1.1a.415.415,0,0,0,.586,0l1.173-1.173a.415.415,0,0,0,0-.586Z" transform="translate(810.705 10181.705)" fill="#f94e60"/>
    <rect id="Rectangle_83" data-name="Rectangle 83" width="266" height="11" rx="5.5" transform="translate(523 10471)" fill="#d3d3d3"/>
  </g>
</svg>
