<svg xmlns="http://www.w3.org/2000/svg" xmlns:xlink="http://www.w3.org/1999/xlink" width="34.746" height="34.738" viewBox="0 0 34.746 34.738">
  <defs>
    <linearGradient id="linear-gradient" x1="-0.042" y1="1.115" x2="0.951" y2="-0.191" gradientUnits="objectBoundingBox">
      <stop offset="0" stop-color="#feb62e"/>
      <stop offset="0.213" stop-color="#fc4535"/>
      <stop offset="0.628" stop-color="#d12bb3"/>
      <stop offset="1" stop-color="#1c41de"/>
    </linearGradient>
  </defs>
  <path id="instagram" d="M17.3,40.288a8.906,8.906,0,1,0,8.906,8.906A8.892,8.892,0,0,0,17.3,40.288Zm0,14.7a5.79,5.79,0,1,1,5.79-5.79,5.8,5.8,0,0,1-5.79,5.79ZM28.65,39.923a2.077,2.077,0,1,1-2.077-2.077A2.073,2.073,0,0,1,28.65,39.923Zm5.9,2.108c-.132-2.783-.767-5.248-2.806-7.279s-4.5-2.666-7.279-2.806c-2.868-.163-11.464-.163-14.332,0a10.333,10.333,0,0,0-7.279,2.8C.814,36.776.187,39.241.047,42.024c-.163,2.868-.163,11.464,0,14.332.132,2.783.767,5.248,2.806,7.279s4.5,2.666,7.279,2.806c2.868.163,11.464.163,14.332,0,2.783-.132,5.248-.767,7.279-2.806s2.666-4.5,2.806-7.279C34.711,53.488,34.711,44.9,34.548,42.032Zm-3.705,17.4a5.862,5.862,0,0,1-3.3,3.3c-2.287.907-7.713.7-10.24.7s-7.961.2-10.24-.7a5.862,5.862,0,0,1-3.3-3.3c-.907-2.287-.7-7.713-.7-10.24s-.2-7.961.7-10.24a5.862,5.862,0,0,1,3.3-3.3c2.287-.907,7.713-.7,10.24-.7s7.961-.2,10.24.7a5.862,5.862,0,0,1,3.3,3.3c.907,2.287.7,7.713.7,10.24S31.75,57.155,30.843,59.433Z" transform="translate(0.075 -31.825)" fill="url(#linear-gradient)"/>
</svg>
