<svg xmlns="http://www.w3.org/2000/svg" width="310" height="309.318" viewBox="0 0 310 309.318" fill="#007fbc">
  <g id="XMLID_801_" transform="translate(0 -0.341)">
    <path id="XMLID_802_" d="M72.16,99.73H9.927a5,5,0,0,0-5,5V304.658a5,5,0,0,0,5,5H72.16a5,5,0,0,0,5-5V104.73A5,5,0,0,0,72.16,99.73Z"/>
    <path id="XMLID_803_" d="M41.066.341A41.03,41.03,0,1,0,82.1,41.362,41.09,41.09,0,0,0,41.066.341Z"/>
    <path id="XMLID_804_" d="M230.454,94.761c-24.995,0-43.472,10.745-54.679,22.954V104.73a5,5,0,0,0-5-5h-59.6a5,5,0,0,0-5,5V304.658a5,5,0,0,0,5,5h62.1a5,5,0,0,0,5-5V205.74c0-33.333,9.054-46.319,32.29-46.319,25.306,0,27.317,20.818,27.317,48.034v97.2a5,5,0,0,0,5,5H305a5,5,0,0,0,5-5V194.995C310,145.43,300.549,94.761,230.454,94.761Z"/>
  </g>
</svg>
