<svg xmlns="http://www.w3.org/2000/svg" width="34.861" height="34.864" viewBox="0 0 34.861 34.864">
  <path id="paper-plane" d="M31.607.268,1.1,17.863a2.18,2.18,0,0,0,.259,3.9l9.546,3.949v6.945a2.179,2.179,0,0,0,3.861,1.382L18.9,29.016l8.607,3.554a2.177,2.177,0,0,0,2.982-1.682l4.358-28.4A2.18,2.18,0,0,0,31.607.268Zm-18.52,32.39V26.612L16.8,28.144Zm15.252-2.1-14.04-5.8L27.882,8.7a.408.408,0,0,0-.579-.572L9.92,22.942,2.192,19.755l30.5-17.6Z" transform="translate(-0.014 0.026)" fill="#20a0e1"/>
</svg>
