<svg xmlns="http://www.w3.org/2000/svg" xmlns:xlink="http://www.w3.org/1999/xlink" width="33.75" height="33.75" viewBox="0 0 33.75 33.75">
  <defs>
    <linearGradient id="linear-gradient" x1="0.5" x2="0.5" y2="1" gradientUnits="objectBoundingBox">
      <stop offset="0" stop-color="#5ffb7b"/>
      <stop offset="1" stop-color="#2bd449"/>
    </linearGradient>
  </defs>
  <path id="whatsapp" d="M28.7,36.9A16.73,16.73,0,0,0,2.373,57.086L0,65.75l8.867-2.328a16.673,16.673,0,0,0,7.993,2.034h.008A16.618,16.618,0,0,0,28.7,36.9ZM16.867,62.639A13.876,13.876,0,0,1,9.786,60.7l-.5-.3L4.023,61.78l1.4-5.13-.331-.527a13.928,13.928,0,1,1,25.832-7.39A14.056,14.056,0,0,1,16.867,62.639Zm7.624-10.411c-.414-.211-2.471-1.22-2.855-1.356s-.663-.211-.942.211-1.077,1.356-1.326,1.642-.49.316-.9.105c-2.456-1.228-4.068-2.192-5.688-4.972-.429-.738.429-.686,1.228-2.283a.774.774,0,0,0-.038-.731c-.105-.211-.942-2.268-1.288-3.1-.339-.814-.686-.7-.942-.716-.241-.015-.52-.015-.8-.015a1.548,1.548,0,0,0-1.115.52,4.7,4.7,0,0,0-1.461,3.488,8.187,8.187,0,0,0,1.7,4.324c.211.279,2.946,4.5,7.142,6.313C19.858,56.8,20.9,56.9,22.224,56.7a4.28,4.28,0,0,0,2.818-1.989,3.5,3.5,0,0,0,.241-1.989C25.184,52.536,24.906,52.431,24.491,52.227Z" transform="translate(0 -32)" fill="url(#linear-gradient)"/>
</svg>
